<svg id="Capa_1" enable-background="new 0 0 512 512" viewBox="0 0 512 512" xmlns="http://www.w3.org/2000/svg"><g><g><path d="m67.839 28.278c0-6.576-7.955-18.328-10.842-23.755-5.427-2.887-11.62-4.523-18.196-4.523-21.429 0-38.801 17.372-38.801 38.801 0 6.576 1.636 12.769 4.523 18.196 5.427 2.887 15.876 16.232 22.451 16.232 21.43 0 40.865-23.522 40.865-44.951z" fill="#60b7ff"/></g><g><path d="m434.399 38.801c0 6.576 1.636 12.769 4.523 18.196 5.427 2.887 17.436 13.054 24.012 13.054 21.429 0 38.367-23.295 38.367-44.724 0-6.576-7.019-15.377-9.906-20.804-5.426-2.887-11.62-4.523-18.196-4.523-21.429 0-38.8 17.372-38.8 38.801z" fill="#918291"/></g><g><path d="m504.48 466.735c0-6.576-10.197-22.386-13.084-27.813-5.427-2.887-11.62-4.523-18.196-4.523-21.429 0-38.801 17.372-38.801 38.801 0 6.576 1.636 12.769 4.523 18.196 5.427 2.887 14.031 11.663 20.607 11.663 21.429 0 44.951-14.895 44.951-36.324z" fill="#ffe177"/></g><g><path d="m68.369 460.681c0-6.576-8.485-16.332-11.372-21.759-5.427-2.887-11.62-4.523-18.196-4.523-21.429 0-38.801 17.371-38.801 38.8 0 6.576 1.636 12.769 4.523 18.196 5.427 2.887 12.773 11.058 19.349 11.058 21.429.001 44.497-20.343 44.497-41.772z" fill="#5de1c4"/></g><g><path d="m272.65 12.588v16.872c0 15.117 10.661 28.014 25.443 31.184 14.138 3.032 27.722 7.56 40.578 13.407 1.694.77 2.078 3.01.762 4.325l-29.667 29.667c-2.717 2.717-1.778 7.329 1.79 8.753 38.07 15.196 68.445 45.563 83.657 83.632 1.425 3.566 6.036 4.504 8.752 1.789l29.659-29.651c1.316-1.315 3.555-.931 4.325.762 5.848 12.853 10.376 26.437 13.408 40.579 3.169 14.782 16.066 25.444 31.184 25.444h1.699c.03-1.594 9.645-4.659 9.645-6.26 0-63.597-33.373-120.172-72.516-164.263-38.783-34.294-88.305-56.718-142.88-61.586-3.136-.28-5.839 2.198-5.839 5.346z" fill="#918291"/></g><g><path d="m481.396 272.671c-14.621.522-26.951 11.015-30.041 25.422-3.032 14.138-7.56 27.722-13.407 40.578-.77 1.694-3.01 2.078-4.325.762l-29.667-29.667c-2.717-2.717-7.329-1.778-8.753 1.79-15.195 38.069-45.563 68.445-83.632 83.657-3.566 1.425-4.504 6.036-1.789 8.752l29.651 29.659c1.315 1.316.931 3.555-.762 4.325-12.853 5.848-26.437 10.376-40.579 13.408-14.407 3.089-24.9 15.418-25.423 30.038 102.976.002 224.661-82.804 208.727-208.724z" fill="#ffe177"/></g><g><path d="m213.907 451.356c-14.138-3.032-27.722-7.56-40.579-13.407-1.694-.77-2.078-3.01-.762-4.325l29.667-29.667c2.717-2.717 1.778-7.329-1.79-8.753-38.069-15.195-68.445-45.563-83.657-83.632-1.425-3.566-6.036-4.504-8.752-1.789l-29.659 29.651c-1.316 1.315-3.555.931-4.325-.762-5.848-12.853-10.376-26.437-13.408-40.579-3.169-14.782-16.066-25.444-31.184-25.444h-16.87c-3.148 0-5.626 2.703-5.346 5.839 4.873 54.578 27.298 104.102 61.591 142.886 44.09 39.142 100.269 80.287 163.864 80.287 1.6 0 5.061-17.389 6.654-17.419v-1.702c-.001-15.118-10.663-28.014-25.444-31.184z" fill="#5de1c4"/></g><g><path d="m213.907 60.642c-14.142 3.032-27.726 7.56-40.579 13.408-1.693.77-2.077 3.009-.762 4.325l29.651 29.659c2.715 2.716 1.778 7.327-1.789 8.752-38.069 15.212-68.436 45.587-83.632 83.657-1.424 3.568-6.037 4.507-8.753 1.79l-29.667-29.667c-1.316-1.316-3.555-.931-4.325.762-5.847 12.856-10.375 26.44-13.407 40.579-3.17 14.781-16.066 25.443-31.184 25.443h-16.872c-3.148 0-5.626-2.703-5.346-5.838 10.704-119.992 106.269-215.557 226.27-226.271 3.136-.28 5.839 2.198 5.839 5.346v16.87c0 15.118-10.662 28.015-25.444 31.185z" fill="#60b7ff"/></g><g><path d="m484.241 239.351h15.171c3.148 0 5.626-2.703 5.346-5.839-5.841-65.421-36.901-123.579-83.389-164.684 39.144 44.09 62.916 102.134 62.916 165.731.001 1.601-.014 3.198-.044 4.792z" fill="#7a6d79"/></g><g><path d="m499.412 272.65h-16.872c-.383 0-.764.007-1.143.021-16.448 107.405-101.322 192.279-208.727 208.726-.014.38-.021.762-.021 1.146v16.87c0 3.148 2.703 5.626 5.839 5.346 120.001-10.714 215.567-106.279 226.27-226.27.28-3.136-2.198-5.839-5.346-5.839z" fill="#ffc344"/></g><g><path d="m68.832 421.373c41.106 46.49 99.262 77.549 164.68 83.385 3.136.28 5.838-2.198 5.838-5.346v-15.171c-1.593.03-3.19.045-4.791.045-63.595 0-121.638-23.771-165.727-62.913z" fill="#0ed2b3"/></g><g><path d="m56.997 4.523c2.887 5.427 4.523 11.621 4.523 18.197 0 21.429-17.372 38.801-38.801 38.801-6.576 0-12.769-1.636-18.196-4.523 6.521 12.258 19.424 20.604 34.277 20.604 21.429 0 38.801-17.372 38.801-38.801 0-14.853-8.346-27.757-20.604-34.278z" fill="#26a6fe"/></g><g><path d="m457.119 61.52c-6.576 0-12.769-1.636-18.196-4.523 6.521 12.258 19.424 20.604 34.277 20.604 21.428 0 38.8-17.371 38.8-38.8 0-14.853-8.346-27.756-20.604-34.277 2.887 5.427 4.523 11.621 4.523 18.196 0 21.429-17.371 38.8-38.8 38.8z" fill="#7a6d79"/></g><g><path d="m491.396 438.922c2.887 5.427 4.523 11.62 4.523 18.196 0 21.429-17.372 38.801-38.801 38.801-6.576 0-12.769-1.636-18.196-4.523 6.521 12.258 19.424 20.604 34.277 20.604 21.429 0 38.801-17.372 38.801-38.801 0-14.853-8.346-27.756-20.604-34.277z" fill="#ffc344"/></g><g><path d="m56.997 438.922c2.887 5.427 4.523 11.62 4.523 18.196 0 21.429-17.372 38.801-38.801 38.801-6.576 0-12.769-1.636-18.196-4.523 6.521 12.258 19.425 20.604 34.278 20.604 21.429 0 38.801-17.372 38.801-38.801-.001-14.853-8.347-27.756-20.605-34.277z" fill="#0ed2b3"/></g><g><path d="m331.788 283.129 6.357-12.45c14.224-12.353 15.723-34.079 14.158-54.729-1.153-15.218-15.505-24.581-25.786-34.783-5.738-2.222-11.874-3.608-18.255-4.007-19.195-1.199-36.657 6.335-48.8 19.006-1.904 1.987-5.018 1.987-6.922 0-4.879-5.092-10.617-9.354-16.982-12.553-1.562.336-3.253-.125-4.459-1.384-.339-.354-.683-.704-1.03-1.049-8.094-3.125-17.007-4.603-26.329-4.02-30.602 1.912-55.583 26.531-57.9 57.105-1.565 20.649 6.983 39.367 21.206 51.72h-.001l69.216 60.114c1.607-.295 3.154-1.011 4.464-2.148z" fill="#fd8087"/></g><g><path d="m366.16 234.265c-1.834-24.198-17.865-44.666-39.644-53.098 10.281 10.201 17.05 23.943 18.203 39.161 1.565 20.649-6.983 39.367-21.206 51.72h.002l-82.79 71.902c-1.31 1.138-2.856 1.854-4.464 2.148l13.573 11.788c3.537 3.072 8.795 3.072 12.332 0l82.79-71.902h-.002c14.224-12.352 22.771-31.069 21.206-51.719z" fill="#fe646f"/></g></g><g/><g/><g/><g/><g/><g/><g/><g/><g/><g/><g/><g/><g/><g/><g/></svg>