<svg id="Capa_1" enable-background="new 0 0 512 512" height="512" viewBox="0 0 512 512" width="512" xmlns="http://www.w3.org/2000/svg"><g><g><g><path d="m198.073 465.226c-3.016 2.896-6.776 5.1-11.093 6.28l-39.651 10.843c-14.973 4.096-30.84-.197-41.407-11.202l-20.738-21.599c-10.567-11.006-14.211-27.034-9.51-41.83l12.828-42.156-51.311 13.263c-13.797 3.773-28.041-4.353-31.814-18.15s4.353-28.04 18.15-31.814l39.651-10.843c14.975-4.095 30.842.198 41.408 11.202l20.738 21.599c10.567 11.005 14.211 27.033 9.511 41.829l-14.838 42.549 53.32-13.654c13.797-3.773 28.041 4.353 31.814 18.15 2.593 9.48-.434 19.173-7.058 25.533z" fill="#8bb6ef"/><path d="m88.502 365.563-1.351 4.44-11.478 37.717c-4.04 12.717-1.911 26.341 5.475 36.907 11.716-2.679 27.298-6.072 38.849-9.43l1.902-5.454 12.936-37.095c4.231-13.32 1.696-27.637-6.561-38.39-11.809 3.509-27.914 7.98-39.772 11.305z" fill="#8388ef"/></g><g><path d="m367.63 471.061c3.879 1.561 8.19 2.202 12.635 1.686l40.833-4.741c15.42-1.79 28.538-11.694 34.233-25.849l11.177-27.779c5.695-14.155 3.093-30.385-6.791-42.356l-27.637-34.321 52.552-6.849c14.209-1.65 24.389-14.505 22.74-28.714-1.65-14.208-14.505-24.388-28.714-22.74l-40.833 4.741c-15.422 1.791-28.539 11.696-34.233 25.849l-11.177 27.779c-5.695 14.154-3.093 30.383 6.791 42.355l29.648 33.935-54.563 7.236c-14.208 1.65-24.389 14.505-22.74 28.714 1.134 9.764 7.56 17.626 16.079 21.054z" fill="#a183e2"/><path d="m432.08 337.701 2.91 3.615 24.727 30.706c8.495 10.289 11.606 23.724 8.697 36.284-11.87 1.888-27.592 4.556-39.561 5.753l-3.8-4.35-25.848-29.586c-8.898-10.778-11.89-25.006-8.244-38.064 12.266-1.152 28.875-3.017 41.119-4.358z" fill="#9762e2"/></g><g><path d="m252.231 346.06c3.78-1.786 7.18-4.514 9.821-8.127l24.26-33.185c9.162-12.531 10.806-28.886 4.288-42.681l-12.791-27.073c-6.518-13.795-20.196-22.911-35.696-23.791l-43.96-3.035 30.676-43.217c8.442-11.547 5.924-27.751-5.622-36.193-11.547-8.442-27.751-5.924-36.194 5.622l-24.26 33.185c-9.162 12.533-10.805 28.888-4.288 42.681l12.791 27.073c6.518 13.794 20.195 22.91 35.694 23.791l45.043 1.298-31.757 44.954c-8.442 11.547-5.924 27.751 5.622 36.193 7.936 5.802 18.071 6.428 26.373 2.505z" fill="#ffa585"/><path d="m195.71 211.829 2.443-3.661 43.96 3.035c13.322.756 25.293 7.601 32.534 18.267-5.938 8.886-12.218 17.536-18.637 26.09-1.594 2.124-2.945 4.419-4.017 6.848l-45.043-1.298c-13.954-.793-26.428-8.263-33.533-19.809 7.488-9.783 14.96-19.576 22.293-29.472z" fill="#ef7c85"/></g><path d="m67.848 267.587-21.715-10.858c-6.478-3.239-9.104-11.117-5.865-17.596l10.858-21.715c3.239-6.478 11.117-9.104 17.595-5.865l21.715 10.858c6.478 3.239 9.104 11.117 5.865 17.596l-10.858 21.715c-3.239 6.478-11.116 9.104-17.595 5.865z" fill="#ffe266"/><path d="m249.783 462.927 23.345-6.669c6.965-1.99 14.223 2.043 16.213 9.008l6.669 23.345c1.99 6.965-2.043 14.223-9.008 16.213l-23.345 6.669c-6.965 1.99-14.223-2.043-16.213-9.008l-6.669-23.345c-1.989-6.965 2.044-14.223 9.008-16.213z" fill="#ef8bbd"/><path d="m416.268 219.314-30.654 17.698c-9.145 5.28-20.839 2.147-26.118-6.998l-17.698-30.654c-5.28-9.145-2.146-20.839 6.998-26.118l30.654-17.698c9.145-5.28 20.838-2.147 26.118 6.998l17.698 30.653c5.28 9.146 2.147 20.839-6.998 26.119z" fill="#78eac4"/></g><path d="m90.816 49.382 8.447 23.753c.362 1.017 1.078 1.823 1.981 2.23l21.103 9.508c2.981 1.343 2.981 6.094 0 7.437l-21.103 9.508c-.903.407-1.62 1.213-1.981 2.23l-8.447 23.752c-1.193 3.356-5.414 3.356-6.607 0l-8.448-23.753c-.362-1.017-1.078-1.823-1.981-2.23l-21.104-9.507c-2.982-1.343-2.982-6.093 0-7.437l21.103-9.508c.904-.407 1.62-1.213 1.981-2.23l8.448-23.753c1.194-3.355 5.414-3.355 6.608 0z" fill="#cab4ef"/><path d="m406.183 1.867 6.266 17.619c.268.754.799 1.352 1.47 1.654l15.654 7.053c2.212.997 2.212 4.52 0 5.517l-15.654 7.053c-.67.302-1.201.9-1.47 1.654l-6.266 17.619c-.885 2.489-4.016 2.489-4.901 0l-6.266-17.619c-.268-.754-.799-1.352-1.47-1.654l-15.654-7.053c-2.211-.997-2.211-4.52 0-5.517l15.654-7.053c.67-.302 1.201-.9 1.47-1.654l6.266-17.619c.885-2.489 4.015-2.489 4.901 0z" fill="#ffc7b6"/><ellipse cx="312.992" cy="93.373" fill="#8bb6ef" rx="18.445" ry="18.445" transform="matrix(.924 -.383 .383 .924 -11.907 126.885)"/><circle cx="146.562" cy="38.908" fill="#ef8bbd" r="7.957"/><circle cx="474.829" cy="160.511" fill="#ffe266" r="7.957"/></g></svg>