<svg version="1.1" id="Layer_1" xmlns="http://www.w3.org/2000/svg" xmlns:xlink="http://www.w3.org/1999/xlink" x="0px" y="0px" viewBox="0 0 512 512" style="enable-background:new 0 0 512 512;" xml:space="preserve">
<g>
	<path style="fill:none;stroke:#101066;stroke-width:20;stroke-linecap:round;stroke-linejoin:round;stroke-miterlimit:10;" d="&#10;&#9;&#9;M421.139,292.656l34.518-92.566c8.787-20.451,26.554-16.65,26.554-16.65c13.751,2.516,21.151,13.785,19.583,26.407l-31.664,127.287&#10;&#9;&#9;c-8.178,32.702-30.976,64.591-57.518,85.2l-54.709,39.143v23.082c0,5.523-4.477,10-10,10h-91.748v-58.023&#10;&#9;&#9;c0,0-5.979-66.08,56.808-104.241l75.059-48.178c3.801-2.448,8.111-3.644,12.386-3.644c5.933,0,11.81,2.301,16.244,6.734&#10;&#9;&#9;c8.787,8.799,8.968,23.012,0.395,32.025l-50.547,39.865"/>
	<path style="fill:none;stroke:#101066;stroke-width:20;stroke-linecap:round;stroke-linejoin:round;stroke-miterlimit:10;" d="&#10;&#9;&#9;M145.503,359.097l-50.547-39.865c-8.573-9.013-8.393-23.226,0.395-32.025c4.433-4.433,10.31-6.734,16.244-6.734&#10;&#9;&#9;c4.275,0,8.584,1.196,12.386,3.644l75.059,48.178c62.786,38.161,56.808,104.241,56.808,104.241v58.023h-91.748&#10;&#9;&#9;c-5.523,0-10-4.477-10-10v-23.082l-54.709-39.143c-26.543-20.609-49.34-52.498-57.518-85.2L10.207,209.847&#10;&#9;&#9;c-1.568-12.623,5.832-23.892,19.583-26.407c0,0,17.766-3.801,26.554,16.65l34.518,92.566"/>
	<path style="fill:none;stroke:#101066;stroke-width:20;stroke-linecap:round;stroke-linejoin:round;stroke-miterlimit:10;" d="&#10;&#9;&#9;M210.522,276.273h-12.659c-5.523,0-10-4.477-10-10v-53.616c0-21.697,17.589-39.285,39.285-39.285h57.704&#10;&#9;&#9;c21.697,0,39.285,17.589,39.285,39.285v53.616c0,5.523-4.477,10-10,10h-12.496"/>
	
		<circle style="fill:none;stroke:#101066;stroke-width:20;stroke-linecap:round;stroke-linejoin:round;stroke-miterlimit:10;" cx="256" cy="127.003" r="46.369"/>
	<path style="fill:none;stroke:#101066;stroke-width:20;stroke-linecap:round;stroke-linejoin:round;stroke-miterlimit:10;" d="&#10;&#9;&#9;M303.737,110.181h59.965c21.697,0,39.285,17.589,39.285,39.285v52.955c0,5.886-4.772,10.657-10.657,10.657h-68.25"/>
	
		<circle style="fill:none;stroke:#101066;stroke-width:20;stroke-linecap:round;stroke-linejoin:round;stroke-miterlimit:10;" cx="334.853" cy="63.81" r="46.369"/>
	<path style="fill:none;stroke:#101066;stroke-width:20;stroke-linecap:round;stroke-linejoin:round;stroke-miterlimit:10;" d="&#10;&#9;&#9;M187.92,213.078h-68.25c-5.886,0-10.657-4.771-10.657-10.657v-52.955c0-21.697,17.589-39.285,39.285-39.285h61.333"/>
	
		<circle style="fill:none;stroke:#101066;stroke-width:20;stroke-linecap:round;stroke-linejoin:round;stroke-miterlimit:10;" cx="177.147" cy="63.81" r="46.369"/>
	
		<line style="fill:none;stroke:#101066;stroke-width:20;stroke-linecap:round;stroke-linejoin:round;stroke-miterlimit:10;" x1="256" y1="276.273" x2="256" y2="276.273"/>
</g>
<g>
</g>
<g>
</g>
<g>
</g>
<g>
</g>
<g>
</g>
<g>
</g>
<g>
</g>
<g>
</g>
<g>
</g>
<g>
</g>
<g>
</g>
<g>
</g>
<g>
</g>
<g>
</g>
<g>
</g>
</svg>