<svg width="2997.777" height="870.31" viewBox="0 0 2997.777 870.31" version="1.1" id="svg1" xml:space="preserve" xmlns="http://www.w3.org/2000/svg">
  <path id="RAINBOW" d="M1071.149 863.688h97.73v-65.514l25.057-32.104 57.212 97.626h116.537l-103.994-174.153 101.904-133.685H1251.99l-83.112 115.219V555.866h-97.73zm311.228 0h96.894V721.647l108.557 142.041h86.904V555.866h-96.894v135.878l-103.995-135.878h-91.466zm318.336 0h97.73V555.866h-97.737v307.822zm283.194 6.595a202.51 213.224 0 0 0 129.095-46.175V681.627h-141.564v65.961h50.06v30.784a64.672 68.093 0 0 1-33.41 7.036 66.652 70.179 0 0 1-69.748-73.438v-.88c0-41.774 27.565-72.596 65.567-72.596a98.105 103.295 0 0 1 64.73 26.845l54.712-69.507a181.173 190.758 0 0 0-122.369-46.616c-92.302 0-161.214 68.603-161.214 160.507v.88c0 95.472 73.085 159.68 164.133 159.68zm153.359-6.595h97.73V753.311h89.376v110.377h97.73V555.866h-97.737v108.616h-89.376V555.866h-97.73v307.822zm393.085 0h97.746V642.942h86.031v-87.076h-269.823v87.076h86.04v220.746zm335.86 5.715c78.52 0 129.094-39.58 129.094-104.222v-.88c0-62.008-50.12-84.876-124.877-99.387-30.91-6.178-38.875-11.43-38.875-19.786v-.88c0-7.477 6.682-12.751 21.271-12.751a153.3 161.41 0 0 1 87.74 30.343l47.619-69.507c-33.836-28.142-75.601-42.213-131.977-42.213-80.611 0-124.049 45.295-124.049 103.781v.88c0 65.082 57.638 84.868 123.227 98.947 31.32 6.596 40.51 11.43 40.51 20.227v.88c0 8.356-7.517 13.191-25.063 13.191a167.544 176.408 0 0 1-102.322-36.059l-52.24 65.514c37.167 34.33 90.631 51.922 149.934 51.922zM1069.424 512.879h87.432v-78.681h18.682l49.32 78.681h99.755l-60.88-93.633c31.76-16.133 51.565-44.06 51.565-84.18v-.773a82.151 86.497 0 0 0-23.912-65.305c-18.337-19.308-47.824-31.471-94.158-31.471h-127.804zm87.432-144.42V314.6H1195c20.178 0 33.257 8.658 33.257 26.36v.772c0 16.913-12.705 26.752-33.631 26.752h-37.797zm168.205 144.42h93.38l13.453-36.977h91.562l13.826 36.978h94.885l-110.222-277.356h-86.692zm128.875-102.29 23.912-66.881 23.911 66.88zm189.886 102.29h87.432V237.487h-87.432zm118.092 0h86.7V385.807l97.143 127.074h77.75V237.486h-86.713v121.567l-93.044-121.567h-81.828V512.88zm289.65 0h144.974c66.132 0 100.489-32.258 100.489-76.318v-.772c0-37.766-21.675-56.648-55.298-66.881 28.019-10.233 46.701-30.29 46.701-62.95v-.772a55.885 58.841 0 0 0-16.063-42.878c-15.323-16.134-38.142-24.783-74.355-24.783h-146.441V512.88Zm85.187-167.202v-38.553h37.738c18.682 0 28.027 6.688 28.027 18.883v.772c0 12.195-8.97 18.883-27.653 18.883h-38.141zm0 97.564V402.31h44.09c19.071 0 28.401 8.263 28.401 20.08v.772c0 11.8-9.719 20.08-28.775 20.08zm313.935 75.539c80.684 0 143.104-63.73 143.104-143.593v-.773c0-79.863-61.65-142.805-142.356-142.805-80.706 0-143.104 63.73-143.104 143.593v.772c0 79.864 61.65 142.806 142.356 142.806zm.733-81.439c-33.63 0-54.923-29.51-54.923-62.162v-.772c0-32.26 20.919-61.375 54.175-61.375 33.63 0 54.924 29.51 54.924 62.162v.773c.01 32.266-20.904 61.374-54.161 61.374zm216.38 77.5h76.225l45.96-136.905 45.954 136.905h76.225l85.613-277.355h-90.051l-36.99 132.194-42.22-132.966h-75.476l-42.227 132.974-36.99-132.202h-91.54z" stroke-width="7.526" fill="#fff" fill-rule="evenodd"/>
  <path id="path74" style="-inkscape-stroke:none" d="M716.832 0c-.232 17.939-7.303 34.777-20.025 47.47-12.723 12.723-29.561 19.794-47.471 20.026v1.188c17.939.231 34.777 7.303 47.47 20.025 12.752 12.751 19.823 29.647 20.026 47.615h1.188c.202-17.968 7.274-34.864 20.025-47.615 12.722-12.722 29.56-19.794 47.47-20.025v-1.188c-17.938-.232-34.777-7.303-47.5-20.025C725.294 34.748 718.223 17.91 717.99 0Zm-249.49 78.6c-10.106.14-20.186 1.465-30.035 3.709-9.516 2.255-18.923 5.9-26.557 12.15-7.113 5.807-12.402 13.49-16.865 21.434-5.768 10.505-10.42 21.597-16.58 31.892a145.855 145.855 0 0 1-4.227 6.746c-3.203 4.755-6.684 9.335-10.545 13.576-.28.303-.826.885-1.217 1.284-5.366 5.552-12.116 9.794-19.513 12.045-.3.079-.985.292-1.442.404-8.377 2.28-17.329 1.43-25.529-1.162-9.407-2.966-18.005-7.997-26.123-13.516-3.743-2.58-7.424-5.244-11.145-7.857.56 6.975.794 14.045 2.65 20.834 2.057 7.89 5.53 15.467 10.503 21.95 5.247 6.738 12.427 11.875 20.385 14.929 9.842 3.85 20.513 5.026 31.017 5.027 11.813-.004 23.764-1.032 35.069-4.639 8.711-2.804 16.884-7.47 23.376-13.96 6.728-6.59 11.975-14.531 16.297-22.858 3.344-6.342 6.405-12.94 9.743-19.147 5.054-9.361 11.166-18.386 19.457-25.187 2.61-2.157 5.627-4.154 8.468-5.727 6.913-3.83 14.754-6.214 22.463-7.271 4.725-.65 9.507-.82 14.27-.629.348.016 1.14.062 1.658.09 2.85.183 5.834.542 8.56.986 3.926.581 7.756 1.636 11.647 2.387 5.385.89 10.611 2.523 15.71 4.441 2.137-4.933 4.271-9.868 6.405-14.802-5.792-11.312-15.151-20.583-26.03-27.041-10.273-6.037-22.089-9.118-33.93-9.87-2.643-.172-5.292-.24-7.94-.218zm30.63 62.984c-7.49.198-14.98 1.469-22.052 3.967-5.656 2.134-10.59 6.03-14.076 10.959-5.186 7.138-7.9 15.746-9.442 24.35-1.468 8.44-1.79 17.068-1.26 25.609.19 1.331 1.57 2.051 2.813 2.047 3.891.819 7.8 1.607 11.629 2.527 11.144 2.625 22.142 5.855 32.965 9.586a379.378 379.378 0 0 1 17.152 6.389 361.612 361.612 0 0 1 9.346 3.878c6.208 2.648 12.438 5.58 18.557 8.573l3.748 1.816c.684-16.106.984-32.225 1.22-48.344L486.615 178.1l1.598-5.477c19.913 1.083 39.825 2.164 59.738 3.248-2.119-5.118-3.965-10.452-7.33-14.924-3.18-4.408-7.209-8.236-11.84-11.086-7.07-3.441-14.552-6.017-22.191-7.85a64.15 64.15 0 0 0-8.617-.427zm-341.154 88.65c-.198 15.331-6.242 29.72-17.115 40.569-10.872 10.872-25.26 16.915-40.566 17.113v1.016c15.33.198 29.718 6.24 40.566 17.113 10.898 10.897 16.942 25.336 17.115 40.691h1.016c.173-15.355 6.216-29.794 17.113-40.691 10.873-10.873 25.263-16.915 40.569-17.113v-1.016c-15.331-.198-29.721-6.24-40.594-17.113-10.873-10.873-16.915-25.263-17.113-40.569zm325.942 2.594 4.289 5.514c3.15 4.17 6.66 8.109 9.191 12.71.9 1.581 1.698 3.216 2.418 4.885.129.34.449 1.062.63 1.561a49.613 49.613 0 0 1 3.284 17.434c.1 10.35-3.112 20.678-9.004 29.183-.424.706-1.045 1.346-1.373 2.074l2.723 42.579c19.465 11.857 38.93 23.713 58.398 35.566 3.165-9.696 5.975-19.542 7.538-29.637 2.11-13.116 2.572-26.68-.315-39.717-2.678-11.694-8.323-22.465-14.795-32.478-8.415-12.862-18.388-24.657-29.224-35.537-.813-.765-1.573-1.636-2.487-2.264-10.28-4.328-20.82-7.992-31.273-11.873zm-33.615 8.139c-10.173.164-20.218 4.899-26.645 12.818-5.967 7.23-8.708 16.985-7.416 26.266 1.212 9.097 6.287 17.58 13.695 22.992 8.372 6.202 19.521 8.468 29.643 5.97 10.217-2.423 19.207-9.638 23.625-19.187 3.998-8.48 4.232-18.634.61-27.285-3.722-9.094-11.5-16.398-20.796-19.574a36.192 36.192 0 0 0-12.716-2zm454.816 10.19c-2.478.1-4.544 1.584-6.71 2.529-23.257 11.294-54.516 34.588-77.774 45.882-4.644-4.175-9.361-8.3-14.55-11.795-21.116-14.608-46.448-23.15-72.14-23.906-18.279-.614-36.568 2.8-53.691 9.117-10.75 3.938-21.07 8.984-31.043 14.586-20.15 11.42-38.674 26.112-53.022 44.393-5.606 7.163-10.644 14.824-14.486 23.084-.81 1.742-1.513 3.541-2.186 5.334-1.134 1.192-1.026 2.927-1.421 4.418a198.782 198.782 0 0 1-1.979 8.752 183.226 183.226 0 0 1-1.234 4.62c-.823 2.885-1.742 5.73-2.618 8.599 45.427 4.786 90.853 9.575 136.28 14.365.25-3.158.433-6.321.789-9.469.12-.992.274-2.245.435-3.336a106.919 106.919 0 0 1 2.205-11.225 98.91 98.91 0 0 1 1.202-4.304c1.044-3.49 2.336-6.909 4.03-10.139 3.114-6.222 6.188-12.464 9.288-18.693 2.007 8.19 3.94 16.403 6.023 24.574 3.06 9.984 8.105 19.244 13.854 27.916a56.47 56.47 0 0 0 8.81 10.404c6.631 6.175 14.26 11.179 22.137 15.608 3.124 1.748 6.34 3.332 9.658 4.677l14.713 48.909 50.397-11.127c-2.65-39.869-5.304-79.737-7.955-119.606.155-1.391.97-2.577 1.466-3.84.225-1.498.668-3.07 1.885-4.072 18.7-20.431 45.413-52.852 64.094-73.299 2.538-2.945 2.37-7.775-.393-10.521-1.547-1.633-3.82-2.539-6.064-2.436zm-428.28 69.366-2.566 1.032c-3.964 1.659-8.012 3.173-12.238 4.017-7.973 1.683-16.312 1.45-24.217-.468-1.19-.245-2.467.581-2.635 1.802.262 21.037.527 42.1.79 63.147l94.392 32.57c3.685-8.784 7.372-17.567 11.059-26.35-20.72-12.622-41.442-25.239-62.162-37.859-.808-12.63-1.616-25.26-2.422-37.89zm80.887 81.645-.576 1.371c-3.403 8.122-6.818 16.252-10.23 24.375 66.884 32.23 133.77 64.458 200.654 96.69-3.023-8.845-6.016-17.71-9.707-26.305-7.142-16.97-15.66-33.378-21.613-50.836-.588-1.695-1.185-3.59-1.75-5.37a207.237 207.237 0 0 1-1.621-5.534c-.255-1.004-.537-2.018-.743-2.922-.185-.804-.385-1.59-.53-2.29-.67-3.022-1.24-6.228-1.694-9.189l-.578-4.01c-50.538-5.324-101.075-10.653-151.612-15.98zm-124.013 4.977-.342 2.4c-1.36 8.674-1.964 17.546-.742 26.275 1.063 7.826 3.643 15.568 8.342 21.983 2.669 3.66 6.017 6.751 9.265 9.885 7.724 7.194 16.025 13.735 24.41 20.136 17.739 13.423 36.267 25.768 55.094 37.602 1.9 1.185 3.813 2.348 5.72 3.521.695 50.262 1.39 100.524 2.083 150.785 26.2 1.485 52.446 2.055 78.687 1.913l4.547-.004c-6.333-6.892-12.77-13.716-18.392-21.215-8.406-11.024-15.814-23.331-19.5-36.88-1.67-5.993-2.425-12.213-2.465-18.429-.271-16.123 2.39-32.17 6.492-47.723 2.86-10.786 6.504-21.359 10.787-31.662-9.477-18.327-20.37-35.952-32.94-52.326-8.643-11.216-18.167-21.846-29.128-30.85-1.262-.938-2.872-1.132-4.297-1.728-32.54-11.228-65.081-22.455-97.621-33.684zm-59.912 41.626c-25.192.303-50.446 6.059-72.862 17.674-15.123 7.868-28.963 18.554-39.383 32.13-8.283 10.75-14.187 23.36-16.863 36.68-6.974 31.465-6.59 64.618 1.668 95.8 2.166 8.06 4.775 16.04 8.485 23.535-1.329 3.14-2.89 6.188-4.844 8.988-4.951 7.341-11.238 13.68-17.893 19.479-5.03 4.314-10.238 8.416-15.246 12.757-9.78 8.296-19.417 16.762-29.025 25.258.65 6.277.878 12.597.6 18.903a182.46 182.46 0 0 1-.225 3.894c-.432 5.955-1.237 11.926-2.352 17.856-3.442 18.57-7.557 36.993-11.601 55.472-3.33 15.123-6.751 30.195-10.221 45.291h59.496c-4.74-8.751-9.478-17.504-14.217-26.256l36.53-90.396c10.648-5.123 20.912-11.005 30.996-17.154 16.89-10.382 33.174-21.886 47.81-35.297 6.293-5.774 12.156-12.036 17.227-18.918 10.08-13.542 17.806-28.694 24.146-44.299a248.966 248.966 0 0 0 9.621-28.62c1.026-3.692 4.855-6.142 8.612-5.99 3.492.053 6.797 2.416 7.939 5.723 1.039 2.648.036 5.457-.654 8.053-2.627 9.908-6.056 19.586-9.838 29.107 7.534 6.051 15.868 11.042 24.547 15.264 19.386 9.424 40.359 15.2 61.549 18.842 17.32 2.94 34.83 4.541 52.328 5.996-.65-46.775-1.293-93.55-1.942-140.326-17.636-11.05-34.883-22.728-51.648-35.06-7.336-5.44-14.546-11.058-21.463-17.024-4.46-3.874-8.91-7.99-13.004-12.328-4.48-4.617-8.205-9.946-11.047-15.715-.513-1.025-.986-2.07-1.47-3.108-14.858-4.238-30.3-6.41-45.756-6.21zm-169.59 2.024c-13.17.116-26.296 3.688-37.674 10.332-9.68 5.499-18.779 12.448-25.303 21.574-5.749 7.942-9.16 17.336-11.113 26.883-2.92 13.9-2.878 28.168-3.649 42.289-.176 3.51-.406 7.172-.705 10.67-.36 4.255-.873 8.728-1.548 13.064a89.68 89.68 0 0 1-.512 2.92c-1.501 8.747-5.783 16.902-11.78 23.403a52.27 52.27 0 0 1-2.724 2.752c-8.888 8.348-20.251 13.68-32.008 16.593-6.675 1.66-13.517 2.627-20.387 2.944-.658.023-1.635.064-2.418.082-3.714.079-7.431-.037-11.134-.332-.444-.046-1.263-.118-1.85-.174a102.55 102.55 0 0 1-4.287-.518c-5.923-.808-11.748-2.225-17.457-3.982-6.102-1.79-12.29-3.261-18.504-4.608 1.348 6.392 2.754 12.802 5.113 18.91 4.446 12.092 11.259 23.325 20.069 32.737 9.543 10.283 21.573 18.35 34.941 22.719 7.614 2.54 15.596 3.814 23.59 4.334 14.917 1.12 30.158.4 44.55-3.94 11.954-3.58 23.111-9.898 32.135-18.539 12.211-11.621 20.287-27.081 24.604-43.264 2.015-7.488 3.07-15.197 3.654-22.92 1.043-12.514 1.387-25.027 3.348-37.425.1-.563.279-1.62.371-2.182 1.316-7.017 2.944-14.224 7.02-20.219 3.19-4.713 7.972-8.542 13.603-9.798 1.224-.318 2.955-.58 4.178-.674 2.942-.244 5.894-.05 8.834.125.608-2.973 1.192-6.048 1.957-8.89 2.578-9.637 6.647-18.857 11.9-27.331.724-1.177 1.69-2.663 2.455-3.793a115.914 115.914 0 0 1 4.85-6.63c4.513-5.77 9.65-11.014 15.03-15.975l1.948-1.836c-7.41-4.4-14.985-8.577-23.021-11.729-12.086-4.814-25.024-7.74-38.076-7.572zm374.41 11.201 4.353 6.25c4.505 6.453 9.084 12.984 13.24 19.592 6.915 10.952 13.302 22.25 18.917 33.924.54 1.13 1.084 2.3 1.629 3.453-3.855 8.672-6.892 17.681-9.711 26.734-4.21 13.82-7.54 27.98-8.817 42.395-.478 5.913-.66 11.89.07 17.789 1.378 9.362 5.373 18.11 10.083 26.234 7.303 12.465 16.83 23.497 27.228 33.473a132.318 132.318 0 0 0 6.87 6.097 319.238 319.238 0 0 1 3.273 12.68 406.81 406.81 0 0 1 4.826 23.494c2.45 14.176 4.2 28.627 4.51 43.069.278 20.343.285 40.69.246 61.035-.037 15.103-.106 30.205-.188 45.308h56.473c-6.29-9.092-12.574-18.189-18.862-27.283-.086-8.821.03-17.726.288-26.492.267-8.355.645-16.644 1.185-24.965 1.091-16.425 2.712-32.815 5.453-49.095 2.037-11.9 4.676-23.848 8.809-35.268 6.206-17.373 14.682-33.797 22.617-50.416 7.685-16.087 15.075-32.468 19.43-49.818 3.143-12.424 4.578-25.342 3.517-38.14-.42-5.516-1.183-11-1.992-16.472-57.816-27.859-115.63-55.72-173.447-83.578zm321.623 72.031c-.148 11.423-4.651 22.144-12.752 30.227-8.101 8.101-18.822 12.604-30.227 12.752v.756c11.423.147 22.145 4.65 30.227 12.752 8.12 8.12 12.623 18.877 12.752 30.318h.756c.129-11.441 4.632-22.199 12.752-30.318 8.1-8.101 18.822-12.605 30.226-12.752v-.756c-11.422-.148-22.145-4.651-30.246-12.752-8.1-8.101-12.602-18.822-12.75-30.227zm-139.047 92.69-.666 1.717c-4.238 11.244-9.196 22.203-14.475 32.994-3.094 6.344-6.266 12.65-9.418 18.967h61.95c-2.245 4.714-4.374 9.392-6.713 14.037a119.169 119.169 0 0 1-2.95 5.224c-4.38 7.338-9.48 14.234-15.062 20.7-.634.707-1.434 1.637-2.152 2.414a141.546 141.546 0 0 1-10.354 10.296c-11.111 9.973-23.934 18.102-37.898 23.442-3.046 1.177-6.15 2.198-9.272 3.15-.705 6.66-1.378 13.324-1.941 19.998 9.507-2.785 18.947-5.86 28.058-9.77 17.545-7.422 34.143-17.289 48.475-29.89 18.184-15.651 34.496-33.373 49.508-52.059 3.077-3.852 6.084-7.762 9.076-11.681-8.572-8.258-17.565-16.103-27.236-23.055-5.614-4.113-11.394-8.049-17.64-11.148-10.39-5.272-21.393-9.216-32.493-12.698-2.922-.912-5.861-1.77-8.797-2.638zm-386.75 27.56-1.06 1.987c-6.436 12.356-13.801 24.301-22.829 34.947-3.68 4.349-7.608 8.497-11.894 12.252-.893.838-1.85 1.644-2.649 2.56-.897 2.425-2.711 4.332-4.134 6.446-9.051 12.451-19.367 23.961-30.592 34.488-.318.424.723.869.955 1.3 38.002 38.423 76.003 76.845 114.006 115.266h53.314L356.947 749.691c2.78-1.961 5.61-3.867 8.358-5.863 1.235-1.528 2.64-2.91 3.841-4.465.376-.273.755-.952 1.131-1.38 7.18-9.242 13.792-18.916 19.973-28.85 7.04-11.332 13.478-23.028 19.719-34.817-2.704-1.166-5.336-2.281-7.985-3.476-7.157-3.2-14.363-6.847-20.964-11.242-2.617-1.714-5.157-3.544-7.73-5.32zm354.238 42.95-.515 1.224c-3.358 7.785-6.295 15.787-8.108 24.084-1.478 6.3-2.555 12.684-3.746 19.043 6.744-3.212 13.556-6.367 19.758-10.568 11.625-7.66 21.612-17.613 30.055-28.64 1.354-1.716 2.712-3.43 4.068-5.143z" color="#000" fill="#fff" fill-opacity="1" fill-rule="evenodd" stroke-width="1.046" stroke-linecap="round"/>
</svg>
