<svg id="Capa_1" enable-background="new 0 0 497 497" height="512" viewBox="0 0 497 497" width="512" xmlns="http://www.w3.org/2000/svg"><path d="m43.5 497c0-.332 61.046-52.15 205-52.15 139.829 0 205 51.818 205 52.15z" fill="#f6cc90"/><path d="m248.5 444.85c-8.93 0-17.54.2-25.838.575 122.501 5.657 179.838 51.263 179.838 51.575h51c0-.332-65.171-52.15-205-52.15z" fill="#f0c17f"/><path d="m341.592 84.041c-16.68 48.382-61.626 56.708-61.626 56.708s-29.783-35.659-13.537-82.784c17.113-49.64 62.06-57.965 62.06-57.965s30 35.03 13.103 84.041z" fill="#c5e866"/><path d="m328.489 0s-11.879 2.202-25.748 11.084c7.621 14.056 17.067 40.424 5.852 72.956-8.069 23.405-22.752 37.435-35.762 45.684 3.817 7.046 7.136 11.023 7.136 11.023s44.947-8.325 61.626-56.708c16.896-49.009-13.104-84.039-13.104-84.039z" fill="#b2d94b"/><path d="m246.551 255.295c-.742 0-1.497-.111-2.242-.345-3.953-1.237-6.154-5.445-4.917-9.398 1.837-5.87 45.248-144.355 66.397-196.217 1.563-3.835 5.939-5.677 9.776-4.113 3.836 1.564 5.677 5.941 4.112 9.777-20.911 51.279-65.523 193.603-65.972 195.035-1.003 3.207-3.962 5.261-7.154 5.261z" fill="#6c8a13"/><path d="m246.549 477.174c-4.143 0-7.5-3.358-7.5-7.5v-225.438c0-4.142 3.357-7.5 7.5-7.5s7.5 3.358 7.5 7.5v225.438c0 4.142-3.358 7.5-7.5 7.5z" fill="#6c8a13"/><path d="m296.779 311.495c-27.401 3.894-47.573-1.703-47.573-1.703s-17.446-70.005 37.073-124.697c57.427-57.609 125.758-38.649 125.758-38.649s14.989 57.14-24.731 110.239" fill="#9cc042"/><path d="m412.036 146.447s-18.322-5.081-43.963-1.985c6.925.868 10.963 1.985 10.963 1.985s14.989 57.14-24.731 110.239l-90.527 54.81c-1.002.142-1.992.268-2.974.386 8.542 1.053 21.204 1.713 35.974-.386l90.527-54.81c39.721-53.1 24.731-110.239 24.731-110.239z" fill="#85aa18"/><path d="m183.857 274.782c48.636 38.332 40.337 93.276 40.337 93.276s-52.514 20.097-99.886-17.24c-49.899-39.328-41.6-94.271-41.6-94.271s51.882-20.595 101.149 18.235z" fill="#c5e866"/><path d="m128.085 195.723c48.968 62.391 119.053 51.662 119.053 51.662s25.569-67.447-22.127-128.218c-50.24-64.011-120.325-53.283-120.325-53.283s-26.205 66.638 23.399 129.839z" fill="#9cc042"/><path d="m246.549 459.218c-4.143 0-7.5-3.358-7.5-7.5 0-43.573-16.103-80.775-47.861-110.572-23.781-22.313-47.582-31.734-47.819-31.826-3.86-1.503-5.771-5.851-4.267-9.71 1.502-3.859 5.85-5.771 9.71-4.267 1.081.421 26.765 10.587 52.64 34.865 23.995 22.513 52.598 61.87 52.598 121.511-.001 4.141-3.359 7.499-7.501 7.499z" fill="#6c8a13"/><path d="m374.641 339.78c-42.019 29.052-83.14 9.034-83.14 9.034s-2.921-46.429 38.007-74.726c43.111-29.806 84.231-9.788 84.231-9.788s3.467 46.052-39.098 75.48z" fill="#c5e866"/><path d="m413.739 264.3s-21.434-10.43-49.576-5.016c10.266 1.945 16.576 5.016 16.576 5.016s3.466 46.051-39.099 75.48c-11.393 7.877-22.717 12.141-33.176 14.181 15.867 3.012 40.856 3.325 66.176-14.181 42.566-29.428 39.099-75.48 39.099-75.48z" fill="#b2d94b"/><g fill="#6c8a13"><path d="m246.543 459.218c-3.98 0-7.298-3.13-7.486-7.148-.051-1.096-1.107-27.216 12.047-59.509 12.101-29.708 39.043-70.482 98.676-96.03 3.808-1.631 8.216.133 9.847 3.94 1.632 3.808-.133 8.216-3.94 9.848-44.118 18.901-74.631 48.476-90.69 87.901-11.921 29.265-10.966 52.912-10.954 53.147.193 4.138-3.003 7.649-7.141 7.843-.121.006-.241.008-.359.008z"/><path d="m244.006 251.788c-2.732 0-5.367-1.499-6.691-4.102-28.682-56.395-77.152-105.568-77.639-106.059-2.917-2.94-2.898-7.689.042-10.606 2.941-2.918 7.688-2.898 10.606.042 2.053 2.069 50.623 51.353 80.361 109.823 1.877 3.692.406 8.207-3.285 10.085-1.089.554-2.251.817-3.394.817z"/><path d="m248.906 316.946c-1.444 0-2.903-.417-4.19-1.286-3.433-2.318-4.336-6.98-2.019-10.413 2.066-3.06 51.288-75.331 111.177-110.176 3.58-2.084 8.17-.87 10.254 2.71 2.083 3.581.869 8.171-2.711 10.254-56.951 33.137-105.802 104.885-106.288 105.605-1.449 2.148-3.815 3.306-6.223 3.306z"/></g></svg>