<svg id="Layer_1" enable-background="new 0 0 1024 1024" viewBox="0 0 1024 1024" xmlns="http://www.w3.org/2000/svg" fill="#101066">
    <g id="XMLID_13_">
        <g id="XMLID_73_">
            <path id="XMLID_26_"
                d="m914.5 529v266c0 21-17 38-38 38h-266c-21 0-38-17-38-38v-368c0-130.3 105.7-236 236-236v138c-27.1 0-51.6 11-69.3 28.7s-28.7 42.2-28.7 69.3v64h166c21 0 38 17 38 38z" />
            <g id="XMLID_21_">
                <path id="XMLID_25_"
                    d="m899.5 529v99.8 146.2 16.9 3 .1c0 1.4-.1 2.8-.2 4.1.1-.7.6-2.7-.1 0-.3 1.3-.7 2.6-1.1 3.9-.1.6-1.1 2.7.1.1-1.1 2.4-2.4 4.7-3.9 6.7 1.7-2.2.3-.4-.1 0-.9.9-1.9 1.8-2.7 2.7-1.8 1.9-.6.5 0 .1-1 .8-2.1 1.5-3.3 2.1-.8.4-1.5.8-2.3 1.2-3.4 1.9 2.5-.5-1.3.5-.9.2-1.7.5-2.6.8-.9.2-1.7.4-2.6.6 1.8-.2 1.7-.2-.1 0-1.5 0-2.9.1-4.3.1-4.9 0-9.8 0-14.7 0-47.7 0-95.4 0-143.1 0-35.4 0-70.9.5-106.4 0-1.2 0-2.5-.1-3.7-.2-2.5-.2 3.2 1-.7-.2-1.1-.3-2.2-.6-3.2-.9-.7-.2-3.4-1.3-.7-.1-1.2-.5-2.4-1.1-3.5-1.8s-2.2-1.4-3.3-2.1c.6.4 1.8 1.8 0-.1-.9-.9-1.8-1.9-2.7-2.7-.4-.4-1.8-2.2-.1 0-1.3-1.8-2.3-3.7-3.4-5.6-1.9-3.4.5 2.5-.5-1.3-.3-1.3-.7-2.6-1.1-3.9-1.2-3.9 0 1.7-.2-.7-.1-1.2-.1-2.3-.2-3.5v-.1c0-.3 0-.5 0-.8 0-1.2 0-2.5 0-3.7 0-13.1 0-26.2 0-39.3 0-49.7 0-99.4 0-149.1 0-47.5 0-95 0-142.6 0-10.4 0-20.9 0-31.3 0-1.8 0-3.6 0-5.4.1-4.7.3-9.3.7-14 .2-2.3.4-4.6.6-6.9.1-.9.2-1.8.3-2.7s.6-4.2.2-1.5c2.7-18.7 7.5-37.1 14.6-54.6.3-.8.7-1.6 1-2.5-1.3 3.1.4-1 .6-1.3.9-2 1.8-4 2.8-6 2.1-4.4 4.3-8.7 6.6-12.9 4.2-7.7 8.9-15.1 14-22.2 1.3-1.8 2.6-3.5 3.9-5.3 2.6-3.5-1.9 2.3.9-1.1.5-.7 1.1-1.4 1.6-2 3-3.7 6.1-7.4 9.4-10.9 6.2-6.8 12.7-13.2 19.6-19.2 3.3-2.9 6.7-5.7 10.1-8.3-2.4 1.9 2.5-1.9 3.2-2.4 1.9-1.4 3.9-2.8 5.9-4.1 7.4-5.1 15.2-9.7 23.1-13.9 3.9-2 7.9-4 11.9-5.8 1.2-.5 2.4-1.1 3.6-1.6.5-.2 2.7-1.1.1 0 2.5-1 4.9-2 7.4-2.9 8.8-3.3 17.8-6.1 26.9-8.3 4.4-1.1 8.8-2 13.3-2.8 2.2-.4 4.5-.8 6.7-1.1.9-.1 1.8-.3 2.7-.4-3.4.5 1.1-.1 1.5-.2 9.2-1.1 18.5-1.6 27.8-1.6-5-5-10-10-15-15v120.6 17.4l15-15c-44.5.4-86 26.9-103.6 68-11.1 26.1-9.4 53.3-9.4 81v28c0 8.1 6.9 15 15 15h71 90.5 3.9.6c1.4 0 2.8.1 4.1.2-3-.3 1.7.5 2.6.8.8.2 1.7.5 2.5.8-1.4-.5-1.2-.6 0 .1 1.5.8 3 1.7 4.5 2.6.2.1 1.9 1.4.6.4-1.5-1.2 1.2 1.1 1.4 1.4.6.6 3.7 4.2 1.9 1.8.9 1.2 1.7 2.5 2.5 3.8.4.8.8 1.5 1.2 2.3 1 2-.7-2.1 0 .1.5 1.7 1 3.4 1.4 5.1s0-.4 0-.6c.2 1.4.3 2.8.3 4.2.1 7.8 6.8 15.4 15 15 8-.4 15.2-6.6 15-15-.5-29.4-24.1-52.7-53.4-53-9.5-.1-18.9 0-28.4 0-36.1 0-72.3 0-108.4 0-9.6 0-19.2 0-28.8 0l15 15c0-18.4 0-36.7 0-55.1 0-2.9 0-5.7 0-8.6 0-2.6.1-5.1.3-7.7.3-4.1.8-7.2 2.1-12.6 4.3-17.2 13.1-31.4 26.9-43.4 2.8-2.5 2.1-1.9 4.8-3.8 2.1-1.5 4.3-2.9 6.5-4.2s4.5-2.5 6.8-3.7c.9-.5 1.9-.9 2.8-1.3 4.4-2-2.4.7 2.2-.9 5-1.7 10-3.3 15.2-4.3 1.3-.3 2.6-.5 3.9-.7 1.1-.2 1.1-.2 0 0 .8-.1 1.6-.2 2.4-.2 3-.3 6-.4 9-.4 8.1-.1 15-6.8 15-15 0-40.2 0-80.4 0-120.6 0-5.8 0-11.6 0-17.4 0-8.1-6.9-15-15-15-80.4.2-155.8 39.2-203.3 103.8-22.5 30.6-37.9 67-44 104.5-2.9 17.7-3.7 35.4-3.7 53.3v123 162 55c0 11.9-1 24.6 3.4 35.9 8.1 20.7 27.4 34.2 49.7 34.5h9.7 57 158.2c13.3 0 26.6.1 40 0 30.6-.1 54-24.4 54-54.8.1-40.1 0-80.2 0-120.3 0-45.4 0-90.8 0-136.1 0-2.6 0-5.2 0-7.8 0-7.8-6.9-15.4-15-15-8 .3-14.9 6.5-14.9 14.9z" />
            </g>
        </g>
        <g id="XMLID_12_">
            <path id="XMLID_19_"
                d="m451.5 529v266c0 21-17 38-38 38h-266c-21 0-38-17-38-38v-368c0-130.3 105.7-236 236-236v138c-27.1 0-51.6 11-69.3 28.7s-28.7 42.2-28.7 69.3v64h166c21 0 38 17 38 38z" />
            <g id="XMLID_14_">
                <path id="XMLID_18_"
                    d="m436.5 529v99.8 146.2 16.9 3 .1c0 1.4-.1 2.8-.2 4.1.1-.7.6-2.7-.1 0-.3 1.3-.7 2.6-1.1 3.9-.1.6-1.1 2.7.1.1-1.1 2.4-2.4 4.7-3.9 6.7 1.7-2.2.3-.4-.1 0-.9.9-1.9 1.8-2.7 2.7-1.8 1.9-.6.5 0 .1-1 .8-2.1 1.5-3.3 2.1-.8.4-1.5.8-2.3 1.2-3.4 1.9 2.5-.5-1.3.5-.9.2-1.7.5-2.6.8-.9.2-1.7.4-2.6.6 1.8-.2 1.7-.2-.1 0-1.5 0-2.9.1-4.3.1-4.9 0-9.8 0-14.7 0-47.7 0-95.4 0-143.1 0-35.4 0-70.9.5-106.4 0-1.2 0-2.5-.1-3.7-.2-2.5-.2 3.2 1-.7-.2-1.1-.3-2.2-.6-3.2-.9-.7-.2-3.4-1.3-.7-.1-1.2-.5-2.4-1.1-3.5-1.8s-2.2-1.4-3.3-2.1c.6.4 1.8 1.8 0-.1-.9-.9-1.8-1.9-2.7-2.7-.4-.4-1.8-2.2-.1 0-1.3-1.8-2.3-3.7-3.4-5.6-1.9-3.4.5 2.5-.5-1.3-.3-1.3-.7-2.6-1.1-3.9-1.2-3.9 0 1.7-.2-.7-.1-1.2-.1-2.3-.2-3.5v-.1c0-.3 0-.5 0-.8 0-1.2 0-2.5 0-3.7 0-13.1 0-26.2 0-39.3 0-49.7 0-99.4 0-149.1 0-47.5 0-95 0-142.6 0-10.4 0-20.9 0-31.3 0-1.8 0-3.6 0-5.4.1-4.7.3-9.3.7-14 .2-2.3.4-4.6.6-6.9.1-.9.2-1.8.3-2.7s.6-4.2.2-1.5c2.7-18.7 7.5-37.1 14.6-54.6.3-.8.7-1.6 1-2.5-1.3 3.1.4-1 .6-1.3.9-2 1.8-4 2.8-6 2.1-4.4 4.3-8.7 6.6-12.9 4.2-7.7 8.9-15.1 14-22.2 1.3-1.8 2.6-3.5 3.9-5.3 2.6-3.5-1.9 2.3.9-1.1.5-.7 1.1-1.4 1.6-2 3-3.7 6.1-7.4 9.4-10.9 6.2-6.8 12.7-13.2 19.6-19.2 3.3-2.9 6.7-5.7 10.1-8.3-2.4 1.9 2.5-1.9 3.2-2.4 1.9-1.4 3.9-2.8 5.9-4.1 7.4-5.1 15.2-9.7 23.1-13.9 3.9-2 7.9-4 11.9-5.8 1.2-.5 2.4-1.1 3.6-1.6.5-.2 2.7-1.1.1 0 2.5-1 4.9-2 7.4-2.9 8.8-3.3 17.8-6.1 26.9-8.3 4.4-1.1 8.8-2 13.3-2.8 2.2-.4 4.5-.8 6.7-1.1.9-.1 1.8-.3 2.7-.4-3.4.5 1.1-.1 1.5-.2 9.2-1.1 18.5-1.6 27.8-1.6-5-5-10-10-15-15v120.6 17.4c5-5 10-10 15-15-44.5.4-86 26.9-103.6 68-11.1 26.1-9.4 53.3-9.4 81v28c0 8.1 6.9 15 15 15h71 90.5 3.9.6c1.4 0 2.8.1 4.1.2-3-.3 1.7.5 2.6.8.8.2 1.7.5 2.5.8-1.4-.5-1.2-.6 0 .1 1.5.8 3 1.7 4.5 2.6.2.1 1.9 1.4.6.4-1.5-1.2 1.2 1.1 1.4 1.4.6.6 3.7 4.2 1.9 1.8.9 1.2 1.7 2.5 2.5 3.8.4.8.8 1.5 1.2 2.3 1 2-.7-2.1 0 .1.5 1.7 1 3.4 1.4 5.1s0-.4 0-.6c.2 1.4.3 2.8.3 4.2.1 7.8 6.8 15.4 15 15 8-.4 15.2-6.6 15-15-.5-29.4-24.1-52.7-53.4-53-9.5-.1-18.9 0-28.4 0-36.1 0-72.3 0-108.4 0-9.6 0-19.2 0-28.8 0l15 15c0-18.4 0-36.7 0-55.1 0-2.9 0-5.7 0-8.6 0-2.6.1-5.1.3-7.7.3-4.1.8-7.2 2.1-12.6 4.3-17.2 13.1-31.4 26.9-43.4 2.8-2.5 2.1-1.9 4.8-3.8 2.1-1.5 4.3-2.9 6.5-4.2s4.5-2.5 6.8-3.7c.9-.5 1.9-.9 2.8-1.3 4.4-2-2.4.7 2.2-.9 5-1.7 10-3.3 15.2-4.3 1.3-.3 2.6-.5 3.9-.7 1.1-.2 1.1-.2 0 0 .8-.1 1.6-.2 2.4-.2 3-.3 6-.4 9-.4 8.1-.1 15-6.8 15-15 0-40.2 0-80.4 0-120.6 0-5.8 0-11.6 0-17.4 0-8.1-6.9-15-15-15-80.4.2-155.8 39.2-203.3 103.8-22.5 30.6-37.9 67-44 104.5-2.9 17.7-3.7 35.4-3.7 53.3v123 162 55c0 11.9-1 24.6 3.4 35.9 8.1 20.7 27.4 34.2 49.7 34.5h9.7 57 158.2c13.3 0 26.6.1 40 0 30.6-.1 54-24.4 54-54.8.1-40.1 0-80.2 0-120.3 0-45.4 0-90.8 0-136.1 0-2.6 0-5.2 0-7.8 0-7.8-6.9-15.4-15-15-8 .3-14.9 6.5-14.9 14.9z" />
            </g>
        </g>
    </g>
</svg>