<svg id="Capa_1" enable-background="new 0 0 512 512" height="512" viewBox="0 0 512 512" width="512" xmlns="http://www.w3.org/2000/svg"><g><g><path d="m246.496 196.076 265.504-123.563v-58.52c0-6.937-5.727-12.484-12.662-12.315-271.662 6.617-490.866 224.702-499.332 495.902-.218 6.966 5.343 12.745 12.313 12.745h58.432z" fill="#fe646f"/><g fill="#fd4755"><path d="m512 72.513v-58.52c0-6.937-5.728-12.484-12.662-12.315-4.036.098-8.061.247-12.073.438v89.459z"/><path d="m88.964 482.497h-88.258c-.303 5.009-.542 10.036-.7 15.083-.218 6.966 5.343 12.745 12.313 12.745h58.533z"/></g></g><g><path d="m512 72.513c-117.869.013-228.679 45.919-312.026 129.265-82.525 82.525-128.315 191.98-129.223 308.546h70.989l141.978-235.301 228.282-131.521z" fill="#fea95c"/><g fill="#fe9738"><path d="m512 143.502v-70.989c-8.283.001-16.529.237-24.736.688v90.121z"/><path d="m174.749 482.497h-102.919c-.643 9.224-1.006 18.503-1.079 27.828h70.989z"/></g></g><g><path d="m313.843 317.231 198.157-102.739v-70.989c-98.906.013-191.89 38.535-261.83 108.473-69.115 69.116-107.524 160.745-108.43 258.349h70.989z" fill="#ffd15b"/><g fill="#ffc344"><path d="m512 214.492v-70.989c-8.292.001-16.537.297-24.736.835v76.149z"/><path d="m228.481 482.497h-85.451c-.767 9.212-1.203 18.492-1.289 27.828h70.989z"/></g></g><g><path d="m376.442 372.459 135.558-86.978v-70.989c-79.944.013-155.101 31.151-211.633 87.681-55.708 55.709-86.735 129.51-87.638 208.152h70.989z" fill="#00c27a"/><g fill="#08b865"><path d="m512 285.481v-70.989c-8.303.001-16.551.358-24.736 1.024v79.764z"/><path d="m305.713 482.497h-91.379c-.95 9.194-1.497 18.475-1.605 27.828h70.989z"/></g></g><path d="m408.961 414.788 103.039-58.318v-70.99c-60.982.013-118.312 23.766-161.436 66.889-42.301 42.301-65.947 98.276-66.845 157.956h71.032z" fill="#01d0fb"/><path d="m512 356.47v-70.99c-8.323.002-16.575.462-24.736 1.337v84.07z" fill="#01c0fa"/><path d="m371.564 482.497h-85.75c-1.249 9.159-1.954 18.447-2.096 27.828h71.032z" fill="#01c0fa"/><path d="m512 356.47c-42.02.013-81.524 16.382-111.239 46.096-28.89 28.89-45.118 67.043-46.01 107.759l94.991-61.214z" fill="#bd80e1"/><path d="m487.264 358.41v29.679c0 6.203-4.613 11.445-10.768 12.209-18.981 2.356-36.534 10.898-50.275 24.638-12.993 12.994-21.328 29.399-24.185 47.196-.959 5.972-6.104 10.365-12.152 10.365h-32.062c-1.823 9.083-2.866 18.385-3.073 27.828h59.87c6.048 0 11.194-4.394 12.152-10.365 2.857-17.797 11.192-34.202 24.185-47.196 13.741-13.74 31.294-22.282 50.275-24.638 6.155-.764 10.768-6.007 10.768-12.209v-59.447c-8.364.003-16.626.664-24.735 1.94z" fill="#af66da"/></g></svg>